<svg width="12" height="20" viewBox="0 0 12 20" fill="none" xmlns="http://www.w3.org/2000/svg">
<path d="M2.57515 0.900005L11.0001 9.30001C11.1001 9.40001 11.1708 9.50834 11.2121 9.62501C11.2541 9.74167 11.2751 9.86667 11.2751 10C11.2751 10.1333 11.2541 10.2583 11.2121 10.375C11.1708 10.4917 11.1001 10.6 11.0001 10.7L2.57515 19.125C2.34181 19.3583 2.05015 19.475 1.70015 19.475C1.35015 19.475 1.05015 19.35 0.800147 19.1C0.550147 18.85 0.425147 18.5583 0.425147 18.225C0.425147 17.8917 0.550147 17.6 0.800147 17.35L8.15015 10L0.800147 2.65001C0.566813 2.41667 0.450147 2.12934 0.450147 1.78801C0.450147 1.44601 0.575147 1.15001 0.825147 0.900005C1.07515 0.650005 1.36681 0.525005 1.70015 0.525005C2.03348 0.525005 2.32515 0.650005 2.57515 0.900005Z" fill="#901C1C"/>
</svg>
